<svg width="14" height="12" viewBox="0 0 14 12" fill="none" xmlns="http://www.w3.org/2000/svg">
<g id="Closed captions">
<g id="CC">
<path d="M4.94401 4.51495C4.71467 4.51495 4.50934 4.55745 4.32801 4.64245C4.15201 4.72745 4.00267 4.84995 3.88001 5.00995C3.75734 5.16495 3.66401 5.35495 3.60001 5.57995C3.54134 5.80495 3.51201 6.05745 3.51201 6.33745C3.51201 6.71745 3.56001 7.04245 3.65601 7.31245C3.75734 7.57745 3.91467 7.77995 4.12801 7.91995C4.34134 8.05995 4.61334 8.12995 4.94401 8.12995C5.17867 8.12995 5.41067 8.10495 5.64001 8.05495C5.87467 8.00495 6.12801 7.93495 6.40001 7.84495V8.79745C6.14934 8.89245 5.90134 8.96245 5.65601 9.00745C5.41067 9.05245 5.13601 9.07495 4.83201 9.07495C4.24534 9.07495 3.76001 8.96245 3.37601 8.73745C2.99734 8.50745 2.71734 8.18745 2.53601 7.77745C2.35467 7.36245 2.26401 6.87995 2.26401 6.32995C2.26401 5.92495 2.32267 5.55495 2.44001 5.21995C2.55734 4.87995 2.72801 4.58745 2.95201 4.34245C3.18134 4.09745 3.46134 3.90745 3.79201 3.77245C4.12801 3.63745 4.51201 3.56995 4.94401 3.56995C5.22667 3.56995 5.50934 3.60495 5.79201 3.67495C6.08001 3.73995 6.35467 3.82995 6.61601 3.94495L6.22401 4.86745C6.01067 4.77245 5.79467 4.68995 5.57601 4.61995C5.36267 4.54995 5.15201 4.51495 4.94401 4.51495Z" fill="#747474"/>
<path d="M9.88151 4.51495C9.65217 4.51495 9.44684 4.55745 9.26551 4.64245C9.08951 4.72745 8.94017 4.84995 8.81751 5.00995C8.69484 5.16495 8.60151 5.35495 8.53751 5.57995C8.47884 5.80495 8.44951 6.05745 8.44951 6.33745C8.44951 6.71745 8.49751 7.04245 8.59351 7.31245C8.69484 7.57745 8.85217 7.77995 9.06551 7.91995C9.27884 8.05995 9.55084 8.12995 9.88151 8.12995C10.1162 8.12995 10.3482 8.10495 10.5775 8.05495C10.8122 8.00495 11.0655 7.93495 11.3375 7.84495V8.79745C11.0868 8.89245 10.8388 8.96245 10.5935 9.00745C10.3482 9.05245 10.0735 9.07495 9.76951 9.07495C9.18284 9.07495 8.69751 8.96245 8.31351 8.73745C7.93484 8.50745 7.65484 8.18745 7.47351 7.77745C7.29217 7.36245 7.20151 6.87995 7.20151 6.32995C7.20151 5.92495 7.26017 5.55495 7.37751 5.21995C7.49484 4.87995 7.66551 4.58745 7.88951 4.34245C8.11884 4.09745 8.39884 3.90745 8.72951 3.77245C9.06551 3.63745 9.44951 3.56995 9.88151 3.56995C10.1642 3.56995 10.4468 3.60495 10.7295 3.67495C11.0175 3.73995 11.2922 3.82995 11.5535 3.94495L11.1615 4.86745C10.9482 4.77245 10.7322 4.68995 10.5135 4.61995C10.3002 4.54995 10.0895 4.51495 9.88151 4.51495Z" fill="#747474"/>
</g>
<rect id="Rectangle 2004" x="0.5" y="1" width="13" height="10" rx="1.5" stroke="#747474" stroke-linejoin="round"/>
</g>
</svg>
