<svg width="18" height="20" viewBox="0 0 18 20" fill="none" xmlns="http://www.w3.org/2000/svg">
<g id="copy 1" clip-path="url(#clip0_109_536)">
<path id="Vector" d="M16.5703 2.46764L14.5892 0.526114C14.2454 0.189251 13.7792 2.49109e-06 13.2931 0L6.72067 0C5.70837 0 4.88776 0.804196 4.88776 1.79625V3.5925H1.83291C0.820609 3.5925 0 4.3967 0 5.38875V17.3638C0 18.3558 0.820609 19.16 1.83291 19.16H10.3865C11.3988 19.16 12.2194 18.3558 12.2194 17.3638V15.5675H15.2742C16.2865 15.5675 17.1071 14.7633 17.1071 13.7712V3.73777C17.1071 3.26138 16.914 2.8045 16.5703 2.46764ZM10.1574 17.3638H2.06202C2.00126 17.3638 1.94298 17.3401 1.90001 17.298C1.85705 17.2559 1.83291 17.1988 1.83291 17.1392V5.61328C1.83291 5.55373 1.85705 5.49662 1.90001 5.45451C1.94298 5.41241 2.00126 5.38875 2.06202 5.38875H4.88776V13.7712C4.88776 14.7633 5.70837 15.5675 6.72067 15.5675H10.3865V17.1392C10.3865 17.1988 10.3623 17.2559 10.3194 17.298C10.2764 17.3401 10.2181 17.3638 10.1574 17.3638ZM15.0451 13.7712H6.94978C6.88901 13.7712 6.83074 13.7476 6.78777 13.7055C6.7448 13.6634 6.72067 13.6063 6.72067 13.5467V2.02078C6.72067 1.96123 6.7448 1.90412 6.78777 1.86201C6.83074 1.81991 6.88901 1.79625 6.94978 1.79625H10.9975V5.08938C10.9975 5.5854 11.4078 5.9875 11.9139 5.9875H15.2742V13.5467C15.2742 13.6063 15.2501 13.6634 15.2071 13.7055C15.1642 13.7476 15.1059 13.7712 15.0451 13.7712ZM15.2742 4.19125H12.8304V1.79625H13.1982C13.2589 1.79625 13.3172 1.8199 13.3602 1.862L15.2071 3.67202C15.2284 3.69287 15.2453 3.71763 15.2568 3.74487C15.2683 3.77212 15.2742 3.80132 15.2742 3.8308V4.19125Z" fill="#66707F"/>
</g>
<defs>
<clipPath id="clip0_109_536">
<rect width="17.1071" height="19.16" fill="white"/>
</clipPath>
</defs>
</svg>
