<svg width="16" height="16" viewBox="0 0 16 16" fill="none" xmlns="http://www.w3.org/2000/svg">
<g id="Headphone">
<path id="Vector" d="M5.29999 8.90001H4.84999C3.85577 8.90001 3.04999 9.7072 3.04999 10.7034V12.4966C3.04999 13.4925 3.85577 14.3 4.84999 14.3H5.29999C5.79696 14.3 6.19999 13.8961 6.19999 13.3983V9.8017C6.19999 9.30361 5.79696 8.90001 5.29999 8.90001ZM11.15 8.90001H10.7C10.203 8.90001 9.79999 9.30361 9.79999 9.8017V13.3983C9.79999 13.8961 10.203 14.3 10.7 14.3H11.15C12.1442 14.3 12.95 13.4925 12.95 12.4966V10.7034C12.95 9.70748 12.1442 8.90001 11.15 8.90001ZM7.99999 1.70001C3.97558 1.70001 0.928519 5.05054 0.799988 8.90001V12.05C0.799988 12.2986 1.00136 12.5 1.24999 12.5H1.69999C1.94861 12.5 2.14999 12.2986 2.14999 12.05V8.90001C2.14999 5.67492 4.77489 3.05564 7.99999 3.05507C11.2251 3.05564 13.85 5.67492 13.85 8.90001V12.05C13.85 12.2986 14.0514 12.5 14.3 12.5H14.75C14.9986 12.5 15.2 12.2986 15.2 12.05V8.90001C15.0715 5.05054 12.0244 1.70001 7.99999 1.70001Z" fill="#747474"/>
</g>
</svg>
