<svg width="25" height="25" viewBox="0 0 25 25" fill="none" xmlns="http://www.w3.org/2000/svg">
<g id="Add user">
<g id="Icon">
<path d="M10 11.25C12.0711 11.25 13.75 9.57107 13.75 7.5C13.75 5.42893 12.0711 3.75 10 3.75C7.92893 3.75 6.25 5.42893 6.25 7.5C6.25 9.57107 7.92893 11.25 10 11.25Z" fill="#747474"/>
<path d="M10 13.75C14.1421 13.75 17.5 17.1079 17.5 21.25H2.5C2.5 17.1079 5.85786 13.75 10 13.75Z" fill="#747474"/>
<path d="M20 8.75C20 8.05964 19.4404 7.5 18.75 7.5C18.0596 7.5 17.5 8.05964 17.5 8.75V10H16.25C15.5596 10 15 10.5596 15 11.25C15 11.9404 15.5596 12.5 16.25 12.5H17.5V13.75C17.5 14.4404 18.0596 15 18.75 15C19.4404 15 20 14.4404 20 13.75V12.5H21.25C21.9404 12.5 22.5 11.9404 22.5 11.25C22.5 10.5596 21.9404 10 21.25 10H20V8.75Z" fill="#747474"/>
</g>
</g>
</svg>
