<svg width="20" height="20" viewBox="0 0 20 20" fill="none" xmlns="http://www.w3.org/2000/svg">
<g id="Mic L on ">
<path id="Union" fill-rule="evenodd" clip-rule="evenodd" d="M10 1.33333C11.8409 1.33333 13.3333 2.82571 13.3333 4.66666V10C13.3333 11.8409 11.8409 13.3333 10 13.3333C8.15905 13.3333 6.66667 11.8409 6.66667 10V4.66666C6.66667 2.82571 8.15905 1.33333 10 1.33333ZM4.66667 9.33333C5.03486 9.33333 5.33333 9.6318 5.33333 9.99999C5.33333 11.2377 5.825 12.4247 6.70016 13.2998C7.57533 14.175 8.76232 14.6667 10 14.6667C11.2377 14.6667 12.4247 14.175 13.2998 13.2998C14.175 12.4247 14.6667 11.2377 14.6667 9.99999C14.6667 9.6318 14.9651 9.33333 15.3333 9.33333C15.7015 9.33333 16 9.6318 16 9.99999C16 11.5913 15.3679 13.1174 14.2426 14.2426C13.2757 15.2096 12.0127 15.8124 10.6667 15.9629V16C10.6667 16.3682 10.3682 16.6667 10 16.6667C9.63181 16.6667 9.33333 16.3682 9.33333 16V15.9629C7.98732 15.8124 6.72431 15.2096 5.75736 14.2426C4.63214 13.1174 4 11.5913 4 9.99999C4 9.6318 4.29848 9.33333 4.66667 9.33333ZM7.66667 17C7.29848 17 7 17.2985 7 17.6667C7 18.0349 7.29848 18.3333 7.66667 18.3333H12.3333C12.7015 18.3333 13 18.0349 13 17.6667C13 17.2985 12.7015 17 12.3333 17H7.66667Z" fill="#747474"/>
</g>
</svg>
