<svg width="20" height="41" viewBox="0 0 20 20" fill="none" xmlns="http://www.w3.org/2000/svg">
<g id="Mic L off">
<path id="Union" fill-rule="evenodd" clip-rule="evenodd" d="M9.99874 13.2982C9.11468 13.2982 8.26676 12.9474 7.64164 12.3223C7.01652 11.6971 6.66541 10.8489 6.66541 9.96483V6.791L12.2753 12.3991C11.6583 12.9774 10.8444 13.2987 9.99874 13.2982ZM13.056 11.2982L6.66606 4.90949V4.90604L4.3839 2.62388C4.12355 2.36353 4.12355 1.94143 4.3839 1.68108C4.64425 1.42073 5.06636 1.42073 5.32671 1.68108L16.169 12.5234C16.4294 12.7837 16.4294 13.2058 16.169 13.4662C15.9087 13.7265 15.4866 13.7265 15.2262 13.4662L13.0584 11.2984C13.058 11.2992 13.0577 11.3 13.0573 11.3008L13.056 11.2982ZM13.3334 7.80337L7.72742 2.1966C8.20223 1.75359 8.79609 1.45843 9.43608 1.3483C10.0761 1.23816 10.7342 1.31735 11.3298 1.57616C11.9254 1.83498 12.4325 2.26232 12.7886 2.80533C13.1448 3.34834 13.3346 3.98341 13.3347 4.6328V7.80403L13.3334 7.80337ZM5.33333 9.96162C5.33333 9.59343 5.03486 9.29496 4.66667 9.29496C4.29848 9.29496 4 9.59343 4 9.96162C4 11.5529 4.63214 13.079 5.75736 14.2043C6.72431 15.1712 7.98732 15.774 9.33333 15.9245V15.9644C9.33333 16.3326 9.63181 16.6311 10 16.6311C10.3682 16.6311 10.6667 16.3326 10.6667 15.9644V15.9333C11.7337 15.8271 12.7561 15.431 13.6203 14.782C13.9148 14.5609 13.9742 14.143 13.7531 13.8486C13.532 13.5541 13.1141 13.4947 12.8197 13.7158C12.0106 14.3234 11.0223 14.6445 10.0106 14.6284L10.0106 14.6311L10 14.6311L10 14.6283C8.76232 14.6283 7.57533 14.1366 6.70016 13.2615C5.825 12.3863 5.33333 11.1993 5.33333 9.96162ZM7 17.6311C7 17.2629 7.29848 16.9644 7.66667 16.9644H12.3333C12.7015 16.9644 13 17.2629 13 17.6311C13 17.9992 12.7015 18.2977 12.3333 18.2977H7.66667C7.29848 18.2977 7 17.9992 7 17.6311Z" fill="#747474"/>
</g>
</svg>
