<svg width="25" height="25" viewBox="0 0 25 25" fill="none" xmlns="http://www.w3.org/2000/svg">
<g id="Layer_1" clip-path="url(#clip0_108_380)">
<path id="Vector" d="M12.2591 23.9959C9.35173 23.9959 6.44239 23.9237 3.53833 24.0215C1.6291 24.0858 -0.0348888 22.2268 5.22728e-05 20.5398C0.103557 15.5961 0.0369711 10.6485 0.0369711 5.70286C0.0369711 4.15755 0.747659 3.34192 2.31275 3.10307C2.55668 3.06567 2.80523 3.04139 3.05179 3.04073C6.37119 3.03614 9.69125 3.03351 13.0107 3.04008C13.7002 3.04139 14.0536 3.35307 14.0503 3.90492C14.047 4.45939 13.7035 4.75336 13.0001 4.75468C9.82508 4.76058 6.6494 4.7573 3.47438 4.75796C2.34308 4.75796 1.77743 5.31527 1.77743 6.42991C1.77743 11.1091 1.77743 15.7884 1.77743 20.4669C1.77743 21.6572 2.39648 22.2681 3.60228 22.2681C9.33459 22.2681 15.0662 22.2681 20.7986 22.2681C21.7921 22.2681 21.9509 22.1461 21.9569 21.1467C21.976 18.0272 21.9681 14.9084 21.9727 11.7889C21.9727 11.5842 21.9556 11.3709 22.0044 11.1767C22.1243 10.701 22.4349 10.4313 22.9478 10.4831C23.4264 10.5317 23.6894 10.8211 23.7059 11.2961C23.7244 11.8086 23.7132 12.3218 23.7138 12.8349C23.7138 15.4826 23.7277 18.1296 23.7026 20.7766C23.6973 21.3206 23.6228 21.8869 23.4514 22.4007C23.0796 23.5149 22.3426 23.9939 21.1671 23.9946C18.1978 23.9972 15.2291 23.9952 12.2597 23.9952L12.2591 23.9959Z" fill="#747474"/>
<path id="Vector_2" d="M21.1817 5.2122C20.7981 4.8443 20.4118 4.47904 20.0314 4.1085C19.6829 3.76865 19.3355 3.42775 18.9966 3.07891C18.7899 2.86558 18.7931 2.62366 18.9833 2.45004C19.1511 2.29652 19.4074 2.30711 19.5982 2.49609C20.6782 3.56432 21.7545 4.63679 22.8516 5.72726C22.4434 6.0851 22.0438 6.43712 21.6431 6.78755C21.0155 7.33755 20.3873 7.88648 19.7591 8.43595C19.692 8.49471 19.6264 8.55611 19.555 8.60958C19.3312 8.77632 19.1027 8.76256 18.9444 8.57676C18.7862 8.39096 18.8016 8.16228 19.0142 7.9733C19.6072 7.44447 20.2088 6.92465 20.8066 6.40112C20.8865 6.33125 20.9665 6.26031 21.0293 6.11686C20.707 6.11686 20.3841 6.10627 20.0623 6.11898C19.2215 6.1518 18.3967 6.26614 17.6305 6.64092C16.5499 7.16921 15.9857 8.05482 15.9148 9.22998C15.8855 9.71751 15.9601 10.214 16.0176 10.7026C16.0571 11.0409 15.9745 11.2553 15.7134 11.3162C15.4609 11.3754 15.252 11.2119 15.1838 10.8831C14.9685 9.84562 14.9611 8.81338 15.3847 7.82402C15.9809 6.43077 17.135 5.7262 18.5698 5.46787C19.328 5.3313 20.1123 5.33765 20.8855 5.28154C20.9697 5.27519 21.0544 5.28048 21.1391 5.28048C21.1535 5.25772 21.1679 5.23549 21.1822 5.21273L21.1817 5.2122Z" fill="#747474" stroke="#747474" stroke-linecap="round" stroke-linejoin="round"/>
</g>
<defs>
<clipPath id="clip0_108_380">
<rect width="25" height="24.0234" fill="white"/>
</clipPath>
</defs>
</svg>
