<svg width="20" height="41" viewBox="0 0 20 20" fill="none" xmlns="http://www.w3.org/2000/svg">
<g id="Video camera Off">
<g id="Icon">
<path d="M14.5496 7.10999C14.2096 7.27999 13.9996 7.62999 13.9996 7.99999V12C13.9996 12.38 14.2096 12.73 14.5496 12.89L16.5496 13.89C16.8596 14.05 17.2296 14.03 17.5196 13.85C17.8096 13.67 17.9896 13.35 17.9896 13V6.99999C17.9896 6.64999 17.8096 6.32999 17.5196 6.14999C17.2296 5.96999 16.8596 5.94999 16.5496 6.10999L14.5496 7.10999Z" fill="#747474"/>
<path d="M11.9996 10.76V5.99999C11.9996 4.89999 11.0996 3.99999 9.99964 3.99999H5.23964L11.9996 10.76Z" fill="#747474"/>
<path d="M1.99964 9.23999V14C1.99964 15.1 2.89964 16 3.99964 16H8.75964L1.99964 9.23999Z" fill="#747474"/>
<path d="M2.04939 3.63603C1.65887 3.24551 1.0257 3.24551 0.635178 3.63603C0.244654 4.02656 0.244654 4.65972 0.635178 5.05025L11.9489 16.364C12.3394 16.7545 12.9726 16.7545 13.3631 16.364C13.7536 15.9734 13.7536 15.3403 13.3631 14.9497L2.04939 3.63603Z" fill="#747474"/>
</g>
</g>
</svg>
