<svg width="25" height="25" viewBox="0 0 25 25" fill="none" xmlns="http://www.w3.org/2000/svg">
<g id="Users">
<g id="Icon">
<path d="M11.25 7.5C11.25 9.57107 9.57107 11.25 7.5 11.25C5.42893 11.25 3.75 9.57107 3.75 7.5C3.75 5.42893 5.42893 3.75 7.5 3.75C9.57107 3.75 11.25 5.42893 11.25 7.5Z" fill="#747474"/>
<path d="M21.25 7.5C21.25 9.57107 19.5711 11.25 17.5 11.25C15.4289 11.25 13.75 9.57107 13.75 7.5C13.75 5.42893 15.4289 3.75 17.5 3.75C19.5711 3.75 21.25 5.42893 21.25 7.5Z" fill="#747474"/>
<path d="M16.1614 21.25C16.2198 20.8417 16.25 20.4244 16.25 20C16.25 17.956 15.5492 16.0757 14.3747 14.5863C15.2941 14.0544 16.3615 13.75 17.5 13.75C20.9518 13.75 23.75 16.5482 23.75 20V20.25C23.75 20.8023 23.3023 21.25 22.75 21.25H16.1614Z" fill="#747474"/>
<path d="M7.5 13.75C10.9518 13.75 13.75 16.5482 13.75 20V20.25C13.75 20.8023 13.3023 21.25 12.75 21.25H2.25C1.69772 21.25 1.25 20.8023 1.25 20.25V20C1.25 16.5482 4.04822 13.75 7.5 13.75Z" fill="#747474"/>
</g>
</g>
</svg>
